# xmcd
#
# Track frame offsets:
#	187
#	31785
#	54420
#	70832
#	87100
#	106170
#	122900
#	143295
#	160230
#	175097
#	193112
#	208732
#	224277
#	242727
#	261087
#	279182
#	300332
#
# Disc length: 4295
#
# Revision: 2
# Processed by: cddbd v1.5.1PL0 Copyright (c) Steve Scherf et al.
# Submitted via: CDex 1.51
# Normalized: r1:DSETVAR2
#
DISCID=e110c511
DTITLE=Various Artist - Free Soul [heaven]
DYEAR=1900
DGENRE=Soul
TTITLE0=All Because Of You - Leroy Hutson
TTITLE1=Lucky Fellow - Leroy Hutson
TTITLE2=I Think I'm Falling In Love - Leroy Hutson
TTITLE3=Baby Come On - Natural Four
TTITLE4=You Bring Out The Best Of Me - Natural Four
TTITLE5=We Go Back A Ways - The Impressions
TTITLE6=Where Did Those Signs Go - Ed Toensend
TTITLE7=Lover's Holiday - Leroy Hutson
TTITLE8=Love To Hold You Close - Leroy Hutson
TTITLE9=Count On Me - Natural Four
TTITLE10=Sooner Or Later - The Impressions
TTITLE11=Fill You Up - Mystique
TTITLE12=Heaven Right Here On Earth - Natural Four
TTITLE13=This Is What's Happening Now - Natural Four
TTITLE14=Where Did Love Go - Leroy Hutson
TTITLE15=It's Different - Leroy Hutson
TTITLE16=Let's Do It Again - The Staple Singers
EXTD=
EXTT0=
EXTT1=
EXTT2=
EXTT3=
EXTT4=
EXTT5=
EXTT6=
EXTT7=
EXTT8=
EXTT9=
EXTT10=
EXTT11=
EXTT12=
EXTT13=
EXTT14=
EXTT15=
EXTT16=
PLAYORDER=
